<?xml version="1.0" encoding="UTF-8"?>
<svg width="24" height="24" viewBox="0 0 24 24" xmlns="http://www.w3.org/2000/svg">
  <defs>
    <style>
      .keyboard-key {
        fill: currentColor;
        stroke: none;
      }
      .keyboard-base {
        fill: none;
        stroke: currentColor;
        stroke-width: 1.5;
        stroke-linejoin: round;
      }
    </style>
  </defs>
  
  <!-- Keyboard base -->
  <rect class="keyboard-base" x="2" y="6" width="20" height="12" rx="2"/>
  
  <!-- US keyboard layout keys -->
  <!-- Top row -->
  <rect class="keyboard-key" x="3" y="7.5" width="1.2" height="1.2" rx="0.2"/>
  <rect class="keyboard-key" x="4.5" y="7.5" width="1.2" height="1.2" rx="0.2"/>
  <rect class="keyboard-key" x="6" y="7.5" width="1.2" height="1.2" rx="0.2"/>
  <rect class="keyboard-key" x="7.5" y="7.5" width="1.2" height="1.2" rx="0.2"/>
  <rect class="keyboard-key" x="9" y="7.5" width="1.2" height="1.2" rx="0.2"/>
  <rect class="keyboard-key" x="10.5" y="7.5" width="1.2" height="1.2" rx="0.2"/>
  <rect class="keyboard-key" x="12" y="7.5" width="1.2" height="1.2" rx="0.2"/>
  <rect class="keyboard-key" x="13.5" y="7.5" width="1.2" height="1.2" rx="0.2"/>
  <rect class="keyboard-key" x="15" y="7.5" width="1.2" height="1.2" rx="0.2"/>
  <rect class="keyboard-key" x="16.5" y="7.5" width="1.2" height="1.2" rx="0.2"/>
  <rect class="keyboard-key" x="18" y="7.5" width="1.2" height="1.2" rx="0.2"/>
  <rect class="keyboard-key" x="19.5" y="7.5" width="1.2" height="1.2" rx="0.2"/>
  
  <!-- Second row -->
  <rect class="keyboard-key" x="3.5" y="9" width="1.2" height="1.2" rx="0.2"/>
  <rect class="keyboard-key" x="5" y="9" width="1.2" height="1.2" rx="0.2"/>
  <rect class="keyboard-key" x="6.5" y="9" width="1.2" height="1.2" rx="0.2"/>
  <rect class="keyboard-key" x="8" y="9" width="1.2" height="1.2" rx="0.2"/>
  <rect class="keyboard-key" x="9.5" y="9" width="1.2" height="1.2" rx="0.2"/>
  <rect class="keyboard-key" x="11" y="9" width="1.2" height="1.2" rx="0.2"/>
  <rect class="keyboard-key" x="12.5" y="9" width="1.2" height="1.2" rx="0.2"/>
  <rect class="keyboard-key" x="14" y="9" width="1.2" height="1.2" rx="0.2"/>
  <rect class="keyboard-key" x="15.5" y="9" width="1.2" height="1.2" rx="0.2"/>
  <rect class="keyboard-key" x="17" y="9" width="1.2" height="1.2" rx="0.2"/>
  <rect class="keyboard-key" x="18.5" y="9" width="1.2" height="1.2" rx="0.2"/>
  
  <!-- Third row -->
  <rect class="keyboard-key" x="4" y="10.5" width="1.2" height="1.2" rx="0.2"/>
  <rect class="keyboard-key" x="5.5" y="10.5" width="1.2" height="1.2" rx="0.2"/>
  <rect class="keyboard-key" x="7" y="10.5" width="1.2" height="1.2" rx="0.2"/>
  <rect class="keyboard-key" x="8.5" y="10.5" width="1.2" height="1.2" rx="0.2"/>
  <rect class="keyboard-key" x="10" y="10.5" width="1.2" height="1.2" rx="0.2"/>
  <rect class="keyboard-key" x="11.5" y="10.5" width="1.2" height="1.2" rx="0.2"/>
  <rect class="keyboard-key" x="13" y="10.5" width="1.2" height="1.2" rx="0.2"/>
  <rect class="keyboard-key" x="14.5" y="10.5" width="1.2" height="1.2" rx="0.2"/>
  <rect class="keyboard-key" x="16" y="10.5" width="1.2" height="1.2" rx="0.2"/>
  <rect class="keyboard-key" x="17.5" y="10.5" width="1.2" height="1.2" rx="0.2"/>
  
  <!-- Bottom row -->
  <rect class="keyboard-key" x="3" y="12" width="2" height="1.2" rx="0.2"/>
  <rect class="keyboard-key" x="5.5" y="12" width="1.2" height="1.2" rx="0.2"/>
  <rect class="keyboard-key" x="7" y="12" width="1.2" height="1.2" rx="0.2"/>
  <rect class="keyboard-key" x="8.5" y="12" width="1.2" height="1.2" rx="0.2"/>
  <rect class="keyboard-key" x="10" y="12" width="1.2" height="1.2" rx="0.2"/>
  <rect class="keyboard-key" x="11.5" y="12" width="1.2" height="1.2" rx="0.2"/>
  <rect class="keyboard-key" x="13" y="12" width="1.2" height="1.2" rx="0.2"/>
  <rect class="keyboard-key" x="14.5" y="12" width="1.2" height="1.2" rx="0.2"/>
  <rect class="keyboard-key" x="16" y="12" width="1.2" height="1.2" rx="0.2"/>
  <rect class="keyboard-key" x="17.5" y="12" width="1.2" height="1.2" rx="0.2"/>
  <rect class="keyboard-key" x="19" y="12" width="2" height="1.2" rx="0.2"/>
  
  <!-- Space bar -->
  <rect class="keyboard-key" x="6" y="13.5" width="12" height="1.2" rx="0.2"/>
</svg>






































