<?xml version="1.0" encoding="UTF-8"?>
<svg width="16" height="16" viewBox="0 0 16 16" xmlns="http://www.w3.org/2000/svg">
  <defs>
    <linearGradient id="shellGradient" x1="0%" y1="0%" x2="100%" y2="100%">
      <stop offset="0%" style="stop-color:#6366f1;stop-opacity:1" />
      <stop offset="100%" style="stop-color:#8b5cf6;stop-opacity:1" />
    </linearGradient>
  </defs>
  
  <!-- Background circle -->
  <circle cx="8" cy="8" r="7" fill="url(#shellGradient)" stroke="#e2e8f0" stroke-width="0.5"/>
  
  <!-- Shell icon - simplified shell shape -->
  <path d="M4 6.5 C4 5.5 5 4.5 6 4.5 C7 4.5 8 5 8.5 6 C9 5 10 4.5 11 4.5 C12 4.5 13 5.5 13 6.5 C13 7.5 12 8.5 11 8.5 C10 8.5 9 8 8.5 7 C8 8 7 8.5 6 8.5 C5 8.5 4 7.5 4 6.5 Z" 
        fill="#ffffff" opacity="0.9"/>
  
  <!-- Inner detail -->
  <path d="M6.5 6 C6.5 5.5 7 5 7.5 5 C8 5 8.5 5.5 8.5 6 C8.5 6.5 8 7 7.5 7 C7 7 6.5 6.5 6.5 6 Z" 
        fill="#6366f1" opacity="0.7"/>
</svg>



